<svg version="1.1" id="Layer_1" xmlns="http://www.w3.org/2000/svg" xmlns:xlink="http://www.w3.org/1999/xlink" x="0px" y="0px"
	 width="100%" viewBox="0 0 100 143" enable-background="new 0 0 100 143" xml:space="preserve">
<path fill="#FC2D30" opacity="1.000000" stroke="none" 
	d="
M101.000000,9.000000 
	C101.000000,51.354229 101.000000,93.708458 100.771980,136.619431 
	C100.127724,137.431702 99.711487,137.687225 99.210022,137.484650 
	C99.084068,96.128059 99.030701,55.229580 99.045151,14.331123 
	C99.045776,12.548736 99.668770,10.766566 100.249924,9.081326 
	C100.665321,9.118904 100.832657,9.059452 101.000000,9.000000 
z"/>
<path fill="#FD2F33" opacity="1.000000" stroke="none" 
	d="
M1.000001,136.000000 
	C1.000000,94.312439 1.000000,52.624878 1.263552,10.669125 
	C1.709237,10.276197 1.891370,10.151461 2.260899,10.392052 
	C2.636061,12.563252 2.986255,14.368998 2.987657,16.175014 
	C3.016959,53.922462 3.020167,91.669960 2.971615,129.417374 
	C2.968654,131.719147 2.493802,134.020279 2.059066,136.064774 
	C1.586412,135.871887 1.293206,135.935944 1.000001,136.000000 
z"/>
<path fill="#F72B2E" opacity="1.000000" stroke="none" 
	d="
M99.295250,137.942749 
	C99.711487,137.687225 100.127724,137.431702 100.771980,137.088089 
	C101.000000,139.322968 101.000000,141.645950 101.000000,144.000000 
	C70.645775,144.000000 40.291546,144.000000 9.552288,143.761871 
	C9.100396,143.369370 9.033530,143.214981 9.328505,142.854919 
	C11.820946,142.429581 13.951185,142.022995 16.082201,142.018875 
	C39.694176,141.973236 63.306824,141.906326 86.917885,142.060196 
	C91.657150,142.091080 95.790192,141.189636 99.295250,137.942749 
z"/>
<path fill="#FC3030" opacity="1.000000" stroke="none" 
	d="
M10.000000,1.000000 
	C37.020893,1.000000 64.041786,1.000000 91.630722,1.325405 
	C93.019905,2.017054 93.841042,2.383298 94.150055,2.785108 
	C79.695137,2.883613 65.752144,3.024053 51.809597,2.988191 
	C37.206547,2.950630 22.603931,2.743777 8.295097,2.420871 
	C9.059379,1.820549 9.529690,1.410274 10.000000,1.000000 
z"/>
<path fill="#150A14" opacity="1.000000" stroke="none" 
	d="
M9.508951,1.000000 
	C9.529690,1.410274 9.059379,1.820549 7.987302,2.473087 
	C5.614858,5.152475 3.844181,7.589600 2.073503,10.026724 
	C1.891370,10.151461 1.709237,10.276197 1.263552,10.200467 
	C1.000000,7.082645 1.000000,4.165290 1.000000,1.000000 
	C3.670005,1.000000 6.343954,1.000000 9.508951,1.000000 
z"/>
<path fill="#0C0913" opacity="1.000000" stroke="none" 
	d="
M94.662178,2.749544 
	C93.841042,2.383298 93.019905,2.017054 92.099380,1.325405 
	C94.911003,1.000000 97.822014,1.000000 101.000000,1.000000 
	C101.000000,3.333536 101.000000,5.672035 101.000000,8.505266 
	C100.832657,9.059452 100.665321,9.118904 100.237740,8.766796 
	C99.176430,7.236720 98.375374,6.118203 97.425003,4.676162 
	C96.844688,4.205912 96.413681,4.059186 95.987946,3.962515 
	C95.993217,4.012570 96.093346,4.002162 96.057449,3.692191 
	C95.648521,3.219116 95.275475,3.056014 94.877716,2.797840 
	C94.852989,2.702770 94.662178,2.749545 94.662178,2.749544 
z"/>
<path fill="#0D0812" opacity="1.000000" stroke="none" 
	d="
M8.966665,143.060577 
	C9.033530,143.214981 9.100396,143.369370 9.083631,143.761871 
	C6.417543,144.000000 3.835087,144.000000 1.000000,144.000000 
	C1.000000,141.666077 1.000000,139.327774 1.000001,136.494736 
	C1.293206,135.935944 1.586412,135.871887 2.056062,136.043564 
	C2.232506,136.279297 2.250924,136.312195 2.288390,136.671997 
	C2.972224,138.019440 3.618591,139.007095 4.379086,140.272339 
	C5.303451,141.109879 6.113690,141.669830 7.104951,142.460068 
	C7.846204,142.813766 8.406434,142.937180 8.966665,143.060577 
z"/>
<path fill="#E8272A" opacity="1.000000" stroke="none" 
	d="
M9.328505,142.854919 
	C8.406434,142.937180 7.846204,142.813766 7.006256,142.153107 
	C6.097973,141.062149 5.469409,140.508453 4.791473,139.619476 
	C3.911711,138.293533 3.081317,137.302856 2.250924,136.312195 
	C2.250924,136.312195 2.232506,136.279297 2.235511,136.300507 
	C2.493802,134.020279 2.968654,131.719147 2.971615,129.417374 
	C3.020167,91.669960 3.016959,53.922462 2.987657,16.175014 
	C2.986255,14.368998 2.636061,12.563252 2.260899,10.392052 
	C3.844181,7.589600 5.614858,5.152475 7.693330,2.663135 
	C22.603931,2.743777 37.206547,2.950630 51.809597,2.988191 
	C65.752144,3.024053 79.695137,2.883613 94.150055,2.785109 
	C94.662178,2.749545 94.852989,2.702770 95.085327,2.974801 
	C95.576233,3.498608 95.834785,3.750385 96.093346,4.002162 
	C96.093346,4.002162 95.993217,4.012570 96.250282,4.148064 
	C96.862999,4.522267 97.218658,4.760979 97.574310,4.999688 
	C98.375374,6.118203 99.176430,7.236720 99.989670,8.669765 
	C99.668770,10.766566 99.045776,12.548736 99.045151,14.331123 
	C99.030701,55.229580 99.084068,96.128059 99.210022,137.484650 
	C95.790192,141.189636 91.657150,142.091080 86.917885,142.060196 
	C63.306824,141.906326 39.694176,141.973236 16.082201,142.018875 
	C13.951185,142.022995 11.820946,142.429581 9.328505,142.854919 
M17.636810,20.722181 
	C17.425013,22.024456 17.029629,23.326542 17.028275,24.629036 
	C16.994694,56.934669 16.972715,89.240440 17.082386,121.545746 
	C17.088589,123.373299 18.236237,125.196991 19.361515,127.197319 
	C19.530161,127.258385 19.698805,127.319450 19.915871,127.732086 
	C19.915871,127.732086 19.981535,128.080841 20.424492,128.700302 
	C21.965221,129.132660 23.504051,129.933044 25.046974,129.941010 
	C42.369560,130.030472 59.693092,130.043930 77.015297,129.923538 
	C78.653488,129.912140 80.284409,128.854523 82.542274,127.749443 
	C83.034195,124.470627 83.526123,121.191803 83.567062,117.299866 
	C81.537720,116.865265 79.517395,116.105095 77.477585,116.048645 
	C63.740128,115.668480 49.998539,115.437584 35.629288,115.026749 
	C35.237446,114.721558 34.806324,114.455276 34.459686,114.105316 
	C29.713821,109.313858 31.051771,103.661537 32.371830,98.120781 
	C34.530903,89.058372 36.877666,80.040665 39.741322,70.652397 
	C40.473930,69.029930 41.497299,67.474457 41.889229,65.773491 
	C43.663410,58.073669 43.603458,58.182640 51.699974,57.902691 
	C53.820160,57.829380 55.904762,56.726856 58.660721,55.956860 
	C59.104256,55.991261 59.547787,56.025661 59.972229,56.867653 
	C58.999683,62.285954 58.027142,67.704254 57.090103,73.944183 
	C55.464405,81.691780 53.696819,89.414619 52.336800,97.208572 
	C52.075470,98.706184 53.414757,100.483093 54.448528,102.748161 
	C55.157303,103.124619 55.862259,103.820168 56.575439,103.828697 
	C64.652985,103.925415 72.733086,103.990486 80.808693,103.847961 
	C81.874901,103.829147 82.919876,102.607498 84.005013,101.989510 
	C84.005013,101.989510 83.950615,101.978142 84.594368,101.559593 
	C85.062599,99.879105 85.932396,98.200111 85.938644,96.517906 
	C86.028053,72.449257 86.040306,48.379971 85.920876,24.311586 
	C85.912094,22.542173 84.750153,20.778484 83.888306,18.837803 
	C83.888306,18.837803 83.889458,18.544380 83.669006,17.780703 
	C81.561989,16.856081 79.464783,15.156127 77.346397,15.129291 
	C60.140522,14.911315 42.929996,14.936973 25.723019,15.105876 
	C23.835672,15.124402 21.961782,16.513832 20.039068,17.616425 
	C20.039068,17.616425 19.978918,17.962833 19.412800,18.116619 
	C18.953625,18.743629 18.494448,19.370642 17.636810,20.722181 
z"/>
<path fill="#FC3030" opacity="1.000000" stroke="none" 
	d="
M97.425003,4.676164 
	C97.218658,4.760979 96.862999,4.522267 96.245010,4.098008 
	C96.413681,4.059186 96.844688,4.205912 97.425003,4.676164 
z"/>
<path fill="#FC3030" opacity="1.000000" stroke="none" 
	d="
M96.057449,3.692191 
	C95.834785,3.750385 95.576233,3.498608 95.110054,3.069871 
	C95.275475,3.056014 95.648521,3.219116 96.057449,3.692191 
z"/>
<path fill="#FD2F33" opacity="1.000000" stroke="none" 
	d="
M2.288390,136.671997 
	C3.081317,137.302856 3.911711,138.293533 4.648438,139.628265 
	C4.554772,139.972336 4.264960,139.994751 4.264959,139.994751 
	C3.618591,139.007095 2.972224,138.019440 2.288390,136.671997 
z"/>
<path fill="#F72B2E" opacity="1.000000" stroke="none" 
	d="
M4.379086,140.272339 
	C4.264960,139.994751 4.554772,139.972336 4.697807,139.963531 
	C5.469409,140.508453 6.097973,141.062149 6.825234,141.922821 
	C6.113690,141.669830 5.303451,141.109879 4.379086,140.272339 
z"/>
<path fill="#070A15" opacity="1.000000" stroke="none" 
	d="
M19.981535,128.080841 
	C19.981535,128.080841 19.915871,127.732086 19.918167,127.063820 
	C19.946079,108.935127 20.014250,91.474487 19.928751,74.014603 
	C19.920574,72.344963 18.953831,70.680023 18.336716,68.616501 
	C18.304056,67.141441 18.366768,66.062775 18.601021,64.879860 
	C18.658531,64.189026 18.544500,63.602451 18.335077,62.555641 
	C18.303812,56.390965 18.367941,50.686520 18.672405,44.799194 
	C18.750557,43.083408 18.588367,41.550507 18.332382,39.643650 
	C18.299906,38.506645 18.361227,37.743599 18.696144,36.737846 
	C19.306133,30.317709 19.642527,24.140272 19.978918,17.962833 
	C19.978918,17.962833 20.039068,17.616425 20.521530,17.392288 
	C40.258846,17.148180 59.513847,17.091898 78.768295,17.170864 
	C80.477203,17.177872 82.182487,18.065664 83.889458,18.544380 
	C83.889458,18.544380 83.888306,18.837803 84.024261,19.392870 
	C84.090355,47.291340 84.020485,74.634743 83.950615,101.978142 
	C83.950615,101.978142 84.005013,101.989510 83.523811,101.998466 
	C73.366951,102.048668 63.691288,102.089912 54.015629,102.131157 
	C53.414757,100.483093 52.075470,98.706184 52.336800,97.208572 
	C53.696819,89.414619 55.464405,81.691780 57.397057,73.362709 
	C58.965790,67.977768 60.298962,63.190559 61.401455,58.350807 
	C61.543633,57.726688 60.490665,56.830318 59.991322,56.060062 
	C59.547787,56.025661 59.104256,55.991261 57.872787,55.946693 
	C42.742180,55.724476 42.740009,55.723934 39.288204,69.539680 
	C39.170612,70.010345 39.189816,70.515190 39.145256,71.004105 
	C36.877666,80.040665 34.530903,89.058372 32.371830,98.120781 
	C31.051771,103.661537 29.713821,109.313858 34.459686,114.105316 
	C34.806324,114.455276 35.237446,114.721558 36.205765,115.408630 
	C39.800156,116.460838 42.807789,117.651054 45.837765,117.710945 
	C58.560883,117.962463 71.290688,117.875816 84.018051,117.912987 
	C83.526123,121.191803 83.034195,124.470627 82.181076,127.875717 
	C81.819870,128.001984 82.040337,127.802109 81.835098,127.713013 
	C81.083641,127.758972 80.537422,127.894035 79.532578,128.130310 
	C64.719414,128.168594 50.364880,128.105682 35.887161,127.985352 
	C35.492889,127.852425 35.234802,127.890747 34.534081,128.146637 
	C29.379480,128.193863 24.680508,128.137360 19.981535,128.080841 
M62.037212,31.951338 
	C62.037212,31.951338 62.121052,31.918781 61.793743,31.387808 
	C60.864048,30.984632 59.934357,30.581457 58.198013,29.887701 
	C54.312508,29.894999 49.773281,29.544300 48.285313,33.924316 
	C47.138054,37.301422 47.021915,41.461723 51.272732,44.699547 
	C56.460869,46.907089 60.536232,46.301903 63.294510,42.699623 
	C65.790726,39.439594 66.015274,36.094128 63.047913,32.961521 
	C63.047913,32.961521 63.121883,32.989349 62.945152,32.449966 
	C62.631824,32.255745 62.318497,32.061523 62.037212,31.951338 
z"/>
<path fill="#FF2B2F" opacity="1.000000" stroke="none" 
	d="
M84.272491,101.768867 
	C84.020485,74.634743 84.090355,47.291340 84.142273,19.480038 
	C84.750153,20.778484 85.912094,22.542173 85.920876,24.311586 
	C86.040306,48.379971 86.028053,72.449257 85.938644,96.517906 
	C85.932396,98.200111 85.062599,99.879105 84.272491,101.768867 
z"/>
<path fill="#EE2B2C" opacity="1.000000" stroke="none" 
	d="
M83.779236,18.162540 
	C82.182487,18.065664 80.477203,17.177872 78.768295,17.170864 
	C59.513847,17.091898 40.258846,17.148180 20.542820,17.217789 
	C21.961782,16.513832 23.835672,15.124402 25.723019,15.105876 
	C42.929996,14.936973 60.140522,14.911315 77.346397,15.129291 
	C79.464783,15.156127 81.561989,16.856081 83.779236,18.162540 
z"/>
<path fill="#FF2D2F" opacity="1.000000" stroke="none" 
	d="
M36.010345,128.042770 
	C50.364880,128.105682 64.719414,128.168594 79.882233,128.208282 
	C81.140465,128.057404 81.590401,127.929756 82.040337,127.802109 
	C82.040337,127.802109 81.819870,128.001984 81.869293,128.142319 
	C80.284409,128.854523 78.653488,129.912140 77.015297,129.923538 
	C59.693092,130.043930 42.369560,130.030472 25.046974,129.941010 
	C23.504051,129.933044 21.965221,129.132660 20.203014,128.390564 
	C24.680508,128.137360 29.379480,128.193863 34.789268,128.216553 
	C35.670170,128.136078 35.840260,128.089432 36.010345,128.042770 
z"/>
<path fill="#01030F" opacity="1.000000" stroke="none" 
	d="
M18.432089,69.012901 
	C18.953831,70.680023 19.920574,72.344963 19.928751,74.014603 
	C20.014250,91.474487 19.946079,108.935127 19.893955,126.888039 
	C19.698805,127.319450 19.530161,127.258385 18.966255,126.715256 
	C18.524691,107.159767 18.478390,88.086334 18.432089,69.012901 
z"/>
<path fill="#F82F30" opacity="1.000000" stroke="none" 
	d="
M18.336716,68.616501 
	C18.478390,88.086334 18.524691,107.159767 18.711811,126.627838 
	C18.236237,125.196991 17.088589,123.373299 17.082386,121.545746 
	C16.972715,89.240440 16.994694,56.934669 17.028275,24.629036 
	C17.029629,23.326542 17.425013,22.024456 17.899792,20.721409 
	C18.249365,26.140606 18.335955,31.560577 18.422546,36.980549 
	C18.361227,37.743599 18.299906,38.506645 18.246431,40.051437 
	C18.313540,42.216145 18.372805,43.599113 18.432068,44.982079 
	C18.367941,50.686520 18.303812,56.390965 18.253273,62.880219 
	C18.321068,64.104729 18.375275,64.544418 18.429482,64.984116 
	C18.366768,66.062775 18.304056,67.141441 18.336716,68.616501 
z"/>
<path fill="#FD2C2F" opacity="1.000000" stroke="none" 
	d="
M83.792557,117.606430 
	C71.290688,117.875816 58.560883,117.962463 45.837765,117.710945 
	C42.807789,117.651054 39.800156,116.460838 36.520264,115.474434 
	C49.998539,115.437584 63.740128,115.668480 77.477585,116.048645 
	C79.517395,116.105095 81.537720,116.865265 83.792557,117.606430 
z"/>
<path fill="#FA292B" opacity="1.000000" stroke="none" 
	d="
M54.232079,102.439659 
	C63.691288,102.089912 73.366951,102.048668 83.508652,101.975174 
	C82.919876,102.607498 81.874901,103.829147 80.808693,103.847961 
	C72.733086,103.990486 64.652985,103.925415 56.575439,103.828697 
	C55.862259,103.820168 55.157303,103.124619 54.232079,102.439659 
z"/>
<path fill="#E12A2D" opacity="1.000000" stroke="none" 
	d="
M39.443291,70.828247 
	C39.189816,70.515190 39.170612,70.010345 39.288204,69.539680 
	C42.740009,55.723934 42.742180,55.724476 57.545280,56.016762 
	C55.904762,56.726856 53.820160,57.829380 51.699974,57.902691 
	C43.603458,58.182640 43.663410,58.073669 41.889229,65.773491 
	C41.497299,67.474457 40.473930,69.029930 39.443291,70.828247 
z"/>
<path fill="#01030F" opacity="1.000000" stroke="none" 
	d="
M18.696144,36.737846 
	C18.335955,31.560577 18.249365,26.140606 18.099022,20.359142 
	C18.494448,19.370642 18.953625,18.743629 19.695858,18.039726 
	C19.642527,24.140272 19.306133,30.317709 18.696144,36.737846 
z"/>
<path fill="#E12A2D" opacity="1.000000" stroke="none" 
	d="
M59.981773,56.463860 
	C60.490665,56.830318 61.543633,57.726688 61.401455,58.350807 
	C60.298962,63.190559 58.965790,67.977768 57.379303,72.951889 
	C58.027142,67.704254 58.999683,62.285954 59.981773,56.463860 
z"/>
<path fill="#E82829" opacity="1.000000" stroke="none" 
	d="
M50.957405,44.000351 
	C47.021915,41.461723 47.138054,37.301422 48.285313,33.924316 
	C49.773281,29.544300 54.312508,29.894999 58.759979,30.306000 
	C60.254982,31.122459 61.188015,31.520620 62.121052,31.918781 
	C62.121052,31.918781 62.037212,31.951338 62.193802,32.110001 
	C62.607552,32.508892 62.864716,32.749123 63.121883,32.989349 
	C63.121883,32.989349 63.047913,32.961521 63.046432,33.365974 
	C62.872150,43.104923 61.948498,43.994816 52.426109,44.000824 
	C51.936543,44.001133 51.446972,44.000530 50.957405,44.000351 
z"/>
<path fill="#E52C2F" opacity="1.000000" stroke="none" 
	d="
M51.115067,44.349949 
	C51.446972,44.000530 51.936543,44.001133 52.426109,44.000824 
	C61.948498,43.994816 62.872150,43.104923 63.060608,33.329090 
	C66.015274,36.094128 65.790726,39.439594 63.294510,42.699623 
	C60.536232,46.301903 56.460869,46.907089 51.115067,44.349949 
z"/>
<path fill="#01030F" opacity="1.000000" stroke="none" 
	d="
M18.672407,44.799194 
	C18.372805,43.599113 18.313540,42.216145 18.340227,40.425392 
	C18.588367,41.550507 18.750557,43.083408 18.672407,44.799194 
z"/>
<path fill="#E52C2F" opacity="1.000000" stroke="none" 
	d="
M61.957397,31.653294 
	C61.188015,31.520620 60.254982,31.122459 59.163303,30.451290 
	C59.934357,30.581457 60.864048,30.984632 61.957397,31.653294 
z"/>
<path fill="#01030F" opacity="1.000000" stroke="none" 
	d="
M18.601021,64.879860 
	C18.375275,64.544418 18.321068,64.104729 18.348665,63.340454 
	C18.544500,63.602451 18.658531,64.189026 18.601021,64.879860 
z"/>
<path fill="#00040E" opacity="1.000000" stroke="none" 
	d="
M81.835098,127.713013 
	C81.590401,127.929756 81.140465,128.057404 80.340866,128.107071 
	C80.537422,127.894035 81.083641,127.758972 81.835098,127.713013 
z"/>
<path fill="#00040E" opacity="1.000000" stroke="none" 
	d="
M35.887161,127.985352 
	C35.840260,128.089432 35.670170,128.136078 35.244896,128.112793 
	C35.234802,127.890747 35.492889,127.852425 35.887161,127.985352 
z"/>
<path fill="#E52C2F" opacity="1.000000" stroke="none" 
	d="
M63.033516,32.719658 
	C62.864716,32.749123 62.607552,32.508892 62.177780,32.067982 
	C62.318497,32.061523 62.631824,32.255745 63.033516,32.719658 
z"/>
</svg>